<svg width="16" height="19" viewBox="0 0 16 19" fill="none" xmlns="http://www.w3.org/2000/svg">
<path d="M5.03534 0.656836L4.78848 1.1875H1.49705C0.890189 1.1875 0.399902 1.71816 0.399902 2.375C0.399902 3.03184 0.890189 3.5625 1.49705 3.5625H14.6628C15.2696 3.5625 15.7599 3.03184 15.7599 2.375C15.7599 1.71816 15.2696 1.1875 14.6628 1.1875H11.3713L11.1245 0.656836C10.9393 0.252344 10.5588 0 10.1439 0H6.01591C5.60105 0 5.22048 0.252344 5.03534 0.656836V0.656836ZM14.6628 4.75H1.49705L2.2239 17.3301C2.27876 18.2689 2.99876 19 3.86619 19H12.2936C13.1611 19 13.8811 18.2689 13.9359 17.3301L14.6628 4.75Z" fill="#F9AA01"/>
</svg>
